
        <svg xmlns="http://www.w3.org/2000/svg" xmlns:xlink="http://www.w3.org/1999/xlink" version="1.1" width="3171.4285714285716" height="2128.2696962396344" viewBox="0 0 3171.4285714285716 2128.2696962396344">
			
			<g transform="scale(8.571428571428571) translate(10, 10)">
				<defs id="SvgjsDefs1595"/><g id="SvgjsG1596" featureKey="rZF8Vg-0" transform="matrix(1.62760424058116,0,0,1.62760424058116,94.47005212029057,-6.022130723096335)" fill="#fff"><path xmlns="http://www.w3.org/2000/svg" d="M16.3,38.1c0,8.2,6.3,15.2,14.2,15.7c0,0,0.1,0,0.1,0h37.1c0,0,0.1,0,0.1,0c8.8-0.6,15.7-8.2,15.7-17.2  c0-7.8-5.3-14.7-12.5-16.7c-1.6-9.3-9.7-16.2-19.3-16.2c-7,0-13.4,3.7-16.9,9.7c-0.6-0.1-1.3-0.2-1.9-0.2c-6,0-10.9,4.9-10.9,10.9  c0,0.7,0.1,1.4,0.2,2.1C18.6,28.9,16.3,33.4,16.3,38.1z M25.9,28.9c0.9-0.5,1.3-1.6,0.9-2.6c-0.3-0.7-0.4-1.5-0.4-2.3  c0-3.6,3-6.6,6.6-6.6c0.8,0,1.5,0.1,2.2,0.4c1,0.4,2.2-0.1,2.7-1.1c2.5-5.4,8-8.8,13.9-8.8c8,0,14.5,6,15.3,13.9  c0.1,1,0.8,1.7,1.8,1.9c6,1,10.5,6.6,10.5,12.9c0,6.7-5.3,12.5-11.7,13h-37c-5.5-0.3-10.1-5.6-10.1-11.4  C20.6,34.3,22.6,30.8,25.9,28.9z M50,59.6c-1.2,0-2.1,1-2.1,2.1v21.6c-2.6,0.9-4.5,3.3-4.6,6.2c-0.1,3.7,2.8,6.8,6.5,6.8l0.2,0  c3.6,0,6.6-2.9,6.7-6.5c0-1.8-0.6-3.5-1.8-4.8c-0.8-0.8-1.7-1.4-2.7-1.7V61.7C52.1,60.5,51.2,59.6,50,59.6z M50,92.1L50,92.1  c-1.4,0-2.5-1.2-2.4-2.5c0-1.3,1.1-2.4,2.4-2.4l0.1,0c0.7,0,1.3,0.3,1.7,0.8c0.4,0.5,0.7,1.1,0.7,1.7C52.4,91,51.3,92.1,50,92.1z   M29.5,79.4h5.3c4,0,7.2-3.2,7.2-7.2V61.7c0-1.2-1-2.1-2.1-2.1c-1.2,0-2.1,1-2.1,2.1v10.4c0,1.7-1.3,3-3,3h-5.3  c-0.9-2.6-3.4-4.6-6.3-4.6c-3.7,0-6.7,3-6.7,6.7s3,6.7,6.7,6.7C26.1,83.9,28.6,82,29.5,79.4z M20.7,77.2c0-1.3,1.1-2.4,2.4-2.4  c1.3,0,2.4,1.1,2.4,2.4s-1.1,2.4-2.4,2.4C21.8,79.7,20.7,78.6,20.7,77.2z M60.1,59.6c-1.2,0-2.1,1-2.1,2.1v10.4c0,4,3.2,7.2,7.2,7.2  h5.3c0.9,2.6,3.4,4.6,6.3,4.6c3.7,0,6.7-3,6.7-6.7s-3-6.7-6.7-6.7c-2.9,0-5.4,1.9-6.3,4.6h-5.3c-1.7,0-3-1.3-3-3V61.7  C62.2,60.5,61.3,59.6,60.1,59.6z M76.8,74.8c1.3,0,2.4,1.1,2.4,2.4s-1.1,2.4-2.4,2.4s-2.4-1.1-2.4-2.4S75.5,74.8,76.8,74.8z"/></g><g id="SvgjsG1597" featureKey="6VBqdG-0" transform="matrix(2.1043770117068448,0,0,2.1043770117068448,-0.8417520088169228,158.66835043043324)" fill="#fff"><path d="M12.46 20 l-1.28 -2.96 l-7.16 0 l-1.28 2.96 l-2.34 0 l6.24 -14 l1.92 0 l6.24 14 l-2.34 0 z M4.82 15.219999999999999 l5.56 0 l-2.78 -6.44 z M24.46 5.859999999999999 l2.16 0 l0 5.8 l0 8.34 l-2.16 0 l0 -1.72 c-0.26 0.84 -1.5 1.92 -3.38 1.92 c-2.36 0 -5.18 -1.76 -5.18 -5.4 c0 -3.58 2.82 -5.38 5.18 -5.38 c1.88 0 3.12 1.12 3.38 1.8 l0 -5.36 z M21.36 18.28 c1.62 0 3.2 -1.14 3.2 -3.48 c0 -2.32 -1.58 -3.46 -3.2 -3.46 s-3.36 1.16 -3.36 3.46 c0 2.32 1.74 3.48 3.36 3.48 z M33.6 9.42 c1.88 0 3.12 1.12 3.38 1.8 l0 -1.62 l2.16 0 l0 10.4 l-2.16 0 l0 -1.72 c-0.26 0.84 -1.5 1.92 -3.38 1.92 c-2.36 0 -5.18 -1.76 -5.18 -5.4 c0 -3.58 2.82 -5.38 5.18 -5.38 z M33.879999999999995 11.34 c-1.62 0 -3.36 1.16 -3.36 3.46 c0 2.32 1.74 3.48 3.36 3.48 s3.2 -1.14 3.2 -3.48 c0 -2.32 -1.58 -3.46 -3.2 -3.46 z M46.879999999999995 9.42 c2.36 0 5.18 1.8 5.18 5.38 c0 3.64 -2.82 5.4 -5.18 5.4 c-1.88 0 -3.12 -1.08 -3.38 -1.92 l0 5.52 l-2.16 0 l0 -6.34 l0 -7.86 l2.16 0 l0 1.62 c0.26 -0.68 1.5 -1.8 3.38 -1.8 z M46.599999999999994 18.28 c1.62 0 3.36 -1.16 3.36 -3.48 c0 -2.3 -1.74 -3.46 -3.36 -3.46 s-3.2 1.14 -3.2 3.46 c0 2.34 1.58 3.48 3.2 3.48 z M59.15999999999999 11.4 l-2.2 0 l0 5.82 c0 0.56 0.2 1 0.84 1 c0.54 0 0.92 -0.1 1.36 -0.28 l0 1.82 c-0.44 0.22 -1.02 0.36 -1.92 0.36 c-1.3 0 -2.44 -0.52 -2.44 -2.82 l0 -5.9 l-1.44 0 l0 -1.8 l1.44 0 l0 -2.44 l2.16 0 l0 2.44 l2.2 0 l0 1.8 z M63.11999999999999 5.859999999999999 l0 1.88 l-2.16 0 l0 -1.88 l2.16 0 z M63.11999999999999 9.6 l0 10.4 l-2.16 0 l0 -10.4 l2.16 0 z M75.74000000000001 9.58 l-4.64 10.42 l-1.84 0 l-4.64 -10.42 l2.16 0 l3.4 7.72 l3.4 -7.72 l2.16 0 z M82.32000000000001 9.42 c2.36 0 5.56 1.8 5.06 6.16 l-8.28 0 c0.32 1.86 1.8 2.78 3.48 2.78 c1.38 0 2.12 -0.36 2.88 -0.96 l1.22 1.16 c-0.92 1.04 -2.24 1.64 -4.16 1.64 c-2.64 0 -5.58 -1.8 -5.58 -5.38 c0 -3.6 3.02 -5.4 5.38 -5.4 z M82.32000000000001 11.28 c-1.34 0 -2.84 0.9 -3.2 2.72 l6.36 0 c-0.24 -1.82 -1.82 -2.72 -3.16 -2.72 z M103.86000000000001 8 l-6.26 0 l0 4.02 l5.16 0 l0 1.88 l-5.16 0 l0 6.1 l-2.26 0 l0 -14 l8.52 0 l0 2 z M109.84000000000002 9.42 c1.88 0 3.12 1.12 3.38 1.8 l0 -1.62 l2.16 0 l0 10.4 l-2.16 0 l0 -1.72 c-0.26 0.84 -1.5 1.92 -3.38 1.92 c-2.36 0 -5.18 -1.76 -5.18 -5.4 c0 -3.58 2.82 -5.38 5.18 -5.38 z M110.12000000000002 11.34 c-1.62 0 -3.36 1.16 -3.36 3.46 c0 2.32 1.74 3.48 3.36 3.48 s3.2 -1.14 3.2 -3.48 c0 -2.32 -1.58 -3.46 -3.2 -3.46 z M122.56000000000002 9.42 c1.88 0 3.5 0.84 4.44 2.52 l-1.68 0.76 c-0.62 -0.84 -1.46 -1.36 -2.74 -1.36 c-1.54 0 -3.3 1.16 -3.3 3.48 c0 2.3 1.76 3.44 3.3 3.44 c1.28 0 2.12 -0.5 2.74 -1.34 l1.7 0.76 c-0.96 1.68 -2.56 2.5 -4.46 2.5 c-2.36 0 -5.38 -1.74 -5.38 -5.36 c0 -3.6 3.02 -5.4 5.38 -5.4 z M134.02 11.4 l-2.2 0 l0 5.82 c0 0.56 0.2 1 0.84 1 c0.54 0 0.92 -0.1 1.36 -0.28 l0 1.82 c-0.44 0.22 -1.02 0.36 -1.92 0.36 c-1.3 0 -2.44 -0.52 -2.44 -2.82 l0 -5.9 l-1.44 0 l0 -1.8 l1.44 0 l0 -2.44 l2.16 0 l0 2.44 l2.2 0 l0 1.8 z M140.80000000000004 9.42 c2.36 0 5.38 1.8 5.38 5.4 c0 3.62 -3.02 5.38 -5.38 5.38 s-5.38 -1.76 -5.38 -5.38 c0 -3.6 3.02 -5.4 5.38 -5.4 z M140.80000000000004 11.34 c-1.52 0 -3.28 1.16 -3.28 3.48 c0 2.3 1.76 3.46 3.28 3.46 s3.28 -1.16 3.28 -3.46 c0 -2.32 -1.76 -3.48 -3.28 -3.48 z M153.88000000000002 9.44 c0.22 0 0.42 0 0.62 0.04 l0 2.06 c-0.2 -0.04 -0.4 -0.04 -0.56 -0.04 c-1.96 0 -3.56 1.4 -3.8 3.6 l0 4.9 l-2.16 0 l0 -10.4 l2.16 0 l0 2.66 c0.44 -1.54 1.78 -2.82 3.74 -2.82 z M164.56000000000003 9.58 l2.16 0 l-6.34 14.22 l-2.16 0 l1.88 -4.14 l-4.5 -10.08 l2.16 0 l3.4 7.72 z"/></g><g id="SvgjsG1598" featureKey="rMoqOW-0" transform="matrix(0.639486330973303,0,0,0.639486330973303,82.74420525415908,215.31655919708865)" fill="#fff"><path d="M12.42 20 l-1.16 -2.7 l-6.92 0 l-1.16 2.7 l-2.78 0 l6.24 -14 l2.34 0 l6.22 14 l-2.78 0 z M5.26 15.16 l5.08 0 l-2.54 -5.92 z M33.26 6 l0 14 l-2.62 0 l0 -14 l2.62 0 z M73.86 5.76 c2.38 0 3.96 1.52 4.66 2.9 l-1.94 1.14 c-0.74 -1.1 -1.54 -1.72 -2.72 -1.72 c-1.12 0 -1.92 0.66 -1.92 1.56 c0 0.86 0.52 1.36 1.72 1.8 l0.96 0.36 c2.98 1.06 4.28 2.36 4.28 4.36 c0 2.72 -2.58 4.14 -4.96 4.14 c-2.5 0 -4.46 -1.48 -5.1 -3.44 l2.02 -1.06 c0.5 1.12 1.44 2.12 3.08 2.12 c1.24 0 2.24 -0.6 2.24 -1.72 c0 -1.14 -0.72 -1.64 -2.28 -2.22 l-0.9 -0.32 c-2.08 -0.76 -3.66 -1.8 -3.66 -4.12 c0 -2.2 2.02 -3.78 4.52 -3.78 z M101.58 5.800000000000001 c3.84 0 7.24 2.96 7.24 7.2 s-3.4 7.2 -7.24 7.2 s-7.24 -2.96 -7.24 -7.2 s3.4 -7.2 7.24 -7.2 z M101.58 17.740000000000002 c2.44 0 4.5 -1.98 4.5 -4.74 s-2.06 -4.74 -4.5 -4.74 c-2.46 0 -4.52 1.98 -4.52 4.74 s2.06 4.74 4.52 4.74 z M127.38 17.58 l5.68 0 l0 2.42 l-8.3 0 l0 -14 l2.62 0 l0 11.58 z M156.94 6 l2.62 0 l0 8.92 c0 3.4 -2.42 5.38 -5.32 5.38 c-2.92 0 -5.34 -1.98 -5.34 -5.38 l0 -8.92 l2.62 0 l0 8.92 c0 2.2 1.4 2.92 2.72 2.92 s2.7 -0.72 2.7 -2.92 l0 -8.92 z M185.2 6 l0 2.42 l-3.6 0 l0 11.58 l-2.62 0 l0 -11.58 l-3.58 0 l0 -2.42 l9.8 0 z M203.66 6 l0 14 l-2.62 0 l0 -14 l2.62 0 z M226.83999999999997 5.800000000000001 c3.84 0 7.24 2.96 7.24 7.2 s-3.4 7.2 -7.24 7.2 s-7.24 -2.96 -7.24 -7.2 s3.4 -7.2 7.24 -7.2 z M226.83999999999997 17.740000000000002 c2.44 0 4.5 -1.98 4.5 -4.74 s-2.06 -4.74 -4.5 -4.74 c-2.46 0 -4.52 1.98 -4.52 4.74 s2.06 4.74 4.52 4.74 z M259.32 6 l2.62 0 l0 14 l-2 0 l-7.3 -9.22 l0 9.22 l-2.62 0 l0 -14 l2.02 0 l7.28 9.24 l0 -9.24 z M282.70000000000005 5.76 c2.38 0 3.96 1.52 4.66 2.9 l-1.94 1.14 c-0.74 -1.1 -1.54 -1.72 -2.72 -1.72 c-1.12 0 -1.92 0.66 -1.92 1.56 c0 0.86 0.52 1.36 1.72 1.8 l0.96 0.36 c2.98 1.06 4.28 2.36 4.28 4.36 c0 2.72 -2.58 4.14 -4.96 4.14 c-2.5 0 -4.46 -1.48 -5.1 -3.44 l2.02 -1.06 c0.5 1.12 1.44 2.12 3.08 2.12 c1.24 0 2.24 -0.6 2.24 -1.72 c0 -1.14 -0.72 -1.64 -2.28 -2.22 l-0.9 -0.32 c-2.08 -0.76 -3.66 -1.8 -3.66 -4.12 c0 -2.2 2.02 -3.78 4.52 -3.78 z"/></g>
			</g>
		</svg>
	